<?xml version="1.0" encoding="utf-8"?>
<!-- Svg Vector Icons : http://www.onlinewebfonts.com/icon -->
<!DOCTYPE svg PUBLIC "-//W3C//DTD SVG 1.1//EN" "http://www.w3.org/Graphics/SVG/1.1/DTD/svg11.dtd">
<svg version="1.1" xmlns="http://www.w3.org/2000/svg" xmlns:xlink="http://www.w3.org/1999/xlink" x="0px" y="0px" viewBox="0 0 1000 1000" enable-background="new 0 0 1000 1000" xml:space="preserve">
<metadata> Svg Vector Icons : http://www.onlinewebfonts.com/icon </metadata>
<g><g><g id="_x34__7_"><g><path d="M714.4,469.4H390.2l126.2-126.2c12-12,12-31.4,0-43.3c-12-12-31.4-12-43.3,0L299.8,473.1c-7.3,7.3-9.6,17.4-7.9,26.9c-1.7,9.5,0.6,19.6,8,26.9l173.2,173.2c12,12,31.4,12,43.3,0c12-12,12-31.4,0-43.3L390.2,530.6h324.2c16.9,0,30.6-13.7,30.6-30.6C745,483.1,731.3,469.4,714.4,469.4z M500,10C229.4,10,10,229.4,10,500c0,270.6,219.4,490,490,490c270.6,0,490-219.4,490-490C990,229.4,770.6,10,500,10z M500,928.8c-236.8,0-428.8-192-428.8-428.8c0-236.8,192-428.8,428.8-428.8c236.8,0,428.8,192,428.8,428.8C928.8,736.8,736.8,928.8,500,928.8z"/></g></g></g><g></g><g></g><g></g><g></g><g></g><g></g><g></g><g></g><g></g><g></g><g></g><g></g><g></g><g></g><g></g></g>
</svg>